<?xml version="1.0" standalone="no"?>
<!DOCTYPE svg PUBLIC "-//W3C//DTD SVG 20010904//EN"
 "http://www.w3.org/TR/2001/REC-SVG-20010904/DTD/svg10.dtd">
<svg version="1.0" xmlns="http://www.w3.org/2000/svg"
 width="260.000000pt" height="260.000000pt" viewBox="0 0 260.000000 260.000000"
 preserveAspectRatio="xMidYMid meet">
<metadata>
Created by potrace 1.11, written by Peter Selinger 2001-2013
</metadata>
<g transform="translate(0.000000,260.000000) scale(0.100000,-0.100000)"
fill="#000000" stroke="none">
<path d="M1222 2570 c3 -16 1 -30 -4 -30 -5 0 -4 -8 1 -19 6 -10 7 -21 4 -25
-4 -3 -7 -23 -7 -43 -1 -39 0 -38 -82 -47 -40 -5 -42 -4 -49 27 -8 35 -11 44
-15 52 -3 6 -4 9 -13 57 -6 27 -12 35 -25 33 -9 -2 -17 -4 -17 -5 0 -2 -22 -7
-52 -12 -12 -2 -26 -7 -29 -11 -4 -4 -16 -7 -26 -7 -10 0 -18 -6 -18 -12 1
-22 25 -107 33 -114 4 -4 7 -18 7 -31 0 -18 -11 -28 -47 -45 -27 -12 -51 -23
-54 -25 -8 -4 -89 119 -89 135 0 21 -32 13 -96 -25 l-63 -37 18 -30 c10 -17
31 -52 45 -78 l27 -47 -29 -28 c-61 -59 -63 -59 -134 13 l-65 64 -44 -43 c-79
-78 -79 -69 -10 -136 34 -33 61 -63 61 -69 0 -5 -16 -30 -35 -55 l-35 -46 -75
44 c-41 25 -80 42 -87 39 -7 -3 -27 -34 -45 -69 l-32 -64 62 -37 c101 -60 98
-56 69 -118 -13 -30 -30 -53 -36 -51 -28 5 -75 18 -114 31 -23 8 -44 14 -47
14 -2 0 -7 -15 -10 -32 -4 -18 -10 -37 -13 -43 -3 -5 -7 -16 -8 -25 -1 -8 -5
-24 -9 -36 -6 -18 0 -23 44 -38 28 -9 62 -17 76 -18 14 -1 25 -6 25 -10 0 -4
7 -8 15 -8 16 0 20 -12 8 -23 -4 -4 -6 -26 -6 -48 0 -22 -5 -43 -11 -45 -6 -2
-50 -5 -96 -7 l-85 -2 -1 -70 c-1 -38 3 -78 7 -87 9 -16 36 -17 59 -3 6 3 10
1 10 -5 0 -7 6 -8 16 -2 9 5 24 8 33 6 63 -12 69 -15 67 -31 -2 -10 0 -32 4
-49 10 -45 3 -52 -75 -69 -80 -19 -95 -27 -92 -48 2 -12 6 -29 9 -37 3 -8 11
-34 17 -57 7 -24 14 -43 17 -43 9 0 98 22 114 27 27 11 70 14 68 6 -1 -4 3
-18 10 -31 7 -12 9 -22 5 -22 -4 0 -2 -5 5 -12 24 -24 10 -44 -62 -86 -73 -42
-74 -43 -65 -72 6 -16 17 -34 25 -41 8 -6 14 -17 14 -23 0 -6 8 -21 18 -34
l17 -22 37 25 c20 14 42 25 47 25 6 0 11 4 11 8 0 4 14 13 32 20 23 8 35 9 45
0 7 -6 12 -13 9 -15 -2 -2 7 -16 20 -30 13 -14 24 -31 23 -37 0 -6 -28 -38
-62 -71 l-62 -60 56 -57 c31 -32 59 -58 62 -58 4 0 33 28 66 62 67 68 71 68
135 13 27 -23 27 -24 10 -57 -9 -18 -25 -45 -35 -59 -10 -14 -21 -37 -24 -51
-6 -22 -2 -28 24 -39 17 -8 31 -18 31 -22 0 -5 5 -5 10 -2 6 3 10 2 10 -3 0
-13 52 -34 60 -25 5 4 17 24 27 43 11 19 29 52 42 72 l22 37 52 -25 c56 -26
61 -36 41 -94 -6 -19 -15 -55 -19 -79 -6 -34 -4 -42 6 -38 8 2 29 -2 47 -9 18
-7 35 -13 37 -14 3 0 6 0 8 -1 1 0 14 -3 28 -5 22 -4 28 0 34 23 5 16 9 33 11
38 2 6 5 19 8 30 19 74 23 80 47 76 13 -2 38 -4 54 -5 17 0 33 -5 36 -11 4 -5
6 -47 5 -92 -1 -46 1 -84 4 -84 3 -1 42 -3 86 -4 l82 -2 0 56 c1 138 0 137 25
138 12 1 39 3 60 6 31 4 37 2 37 -14 0 -10 5 -19 10 -19 6 0 9 -3 8 -8 -1 -4
4 -35 12 -69 14 -61 14 -62 44 -57 17 3 39 6 49 7 9 1 17 5 17 9 0 4 3 7 8 6
4 -1 20 2 35 7 22 6 26 11 21 29 -4 11 -12 44 -19 71 -7 28 -13 55 -15 60 -5
20 0 35 13 35 7 0 29 9 50 20 l37 20 35 -54 c19 -30 40 -66 47 -80 12 -27 27
-33 43 -17 6 5 33 21 60 36 28 15 52 29 53 31 2 1 -17 41 -43 88 -26 47 -42
86 -37 86 5 0 18 8 30 17 65 56 53 57 126 -15 l67 -66 59 59 60 59 -65 66 -66
66 36 47 c20 26 38 47 41 47 7 0 88 -44 94 -51 3 -3 18 -13 35 -22 l30 -15 41
71 42 72 -31 19 c-18 11 -42 25 -54 33 -13 7 -25 13 -28 13 -3 0 -15 9 -27 19
-15 15 -18 24 -10 33 6 7 11 15 11 18 0 3 6 20 12 38 9 27 16 33 33 29 11 -3
31 -8 42 -10 12 -3 39 -10 60 -16 51 -14 64 -14 64 3 0 7 9 42 20 76 11 34 20
64 20 66 0 1 -15 6 -32 9 -18 4 -37 10 -43 14 -5 3 -17 6 -25 7 -8 0 -23 4
-32 7 -10 4 -25 9 -33 12 -11 3 -13 16 -9 57 3 29 8 56 12 59 9 9 92 16 92 8
0 -3 7 -6 15 -6 8 0 15 5 15 11 0 6 4 6 12 -2 7 -7 17 -8 30 -1 15 8 18 22 18
89 l0 80 -90 -2 c-50 0 -93 1 -96 4 -9 10 -11 118 -2 124 4 3 21 8 36 11 39 7
43 8 89 23 37 11 41 15 33 35 -5 13 -6 26 -3 29 4 3 2 6 -3 6 -5 0 -11 11 -12
24 -1 13 -6 35 -11 49 l-10 25 -58 -15 c-32 -8 -62 -16 -68 -17 -5 -1 -16 -5
-22 -9 -12 -8 -44 19 -43 36 0 4 -6 20 -15 37 -8 16 -15 31 -15 34 0 3 33 24
73 47 39 24 74 44 76 46 6 4 -42 99 -63 126 -15 19 -19 18 -136 -50 -39 -22
-36 -23 -83 40 l-29 38 49 54 c26 29 53 53 60 54 28 2 16 30 -33 79 -29 28
-57 52 -63 52 -6 0 -38 -27 -72 -60 l-60 -60 -48 38 c-47 36 -48 38 -34 64 7
15 13 31 12 34 0 4 4 10 9 13 5 3 19 23 31 44 20 36 20 38 3 55 -10 9 -24 18
-31 20 -6 1 -30 13 -51 27 l-40 25 -13 -23 c-8 -12 -29 -47 -47 -79 -36 -61
-33 -60 -107 -27 -46 20 -45 15 -19 109 9 30 16 63 16 72 0 16 -32 29 -100 43
-8 2 -15 4 -15 5 0 1 -8 3 -17 5 -13 2 -21 -10 -34 -53 -9 -32 -17 -61 -18
-67 -10 -49 -16 -54 -59 -48 -23 3 -51 6 -62 7 -18 1 -20 8 -20 94 l1 92 -84
0 -84 0 4 -30z m-552 -1276 c0 -18 -4 -18 -24 5 -17 19 -17 19 3 14 12 -3 21
-12 21 -19z m846 -492 c-3 -3 -1 -11 5 -18 7 -9 5 -14 -11 -19 -11 -3 -18 -9
-16 -13 2 -4 -2 -12 -9 -19 -10 -10 -14 -4 -17 28 -3 28 1 43 11 49 15 8 46 2
37 -8z"/>
</g>
</svg>
